<?xml version="1.0" encoding="utf-8"?>
<!-- Generator: Adobe Illustrator 16.0.0, SVG Export Plug-In . SVG Version: 6.00 Build 0)  -->
<!DOCTYPE svg PUBLIC "-//W3C//DTD SVG 1.1//EN" "http://www.w3.org/Graphics/SVG/1.1/DTD/svg11.dtd">
<svg version="1.1" id="Layer_1" xmlns="http://www.w3.org/2000/svg" xmlns:xlink="http://www.w3.org/1999/xlink" x="0px" y="0px"
	 width="308.854px" height="30px" viewBox="41.573 35 308.854 30" enable-background="new 41.573 35 308.854 30"
	 xml:space="preserve">
<g>
	<path fill="#222026" d="M82.497,64.059c0,0.377-0.308,0.687-0.685,0.687h-6.087c-0.376,0-0.686-0.31-0.686-0.687V57.88
		c0-0.375,0.31-0.683,0.686-0.683h6.087c0.377,0,0.685,0.308,0.685,0.683V64.059z"/>
	<path fill="#222026" d="M71.318,35.684c0-0.376-0.281-0.684-0.658-0.684h-6.087c-0.376,0-0.686,0.308-0.686,0.684v28.375
		c0,0.377,0.31,0.687,0.686,0.687h6.06c0.377,0,0.685-0.31,0.685-0.687L71.318,35.684L71.318,35.684z"/>
	<path fill="#222026" d="M48.976,64.059c0,0.377-0.308,0.687-0.685,0.687h-6.033c-0.377,0-0.685-0.31-0.685-0.687V46.957
		c0-0.376,0.308-0.685,0.685-0.685h6.033c0.377,0,0.685,0.309,0.685,0.685V64.059z"/>
	<path fill="#222026" d="M59.479,35h-17.22c-0.377,0-0.686,0.308-0.686,0.684v6.18c0,0.376,0.309,0.685,0.686,0.685h10.505v21.511
		c0,0.377,0.308,0.687,0.684,0.687h6.031c0.377,0,0.686-0.31,0.686-0.687V35.685C60.164,35.308,59.854,35,59.479,35z"/>
</g>
<g>
	<path fill="#222026" d="M102.119,55.582v8.469c0,0.188-0.066,0.35-0.204,0.486c-0.135,0.14-0.299,0.205-0.485,0.205h-3.354
		c-0.188,0-0.35-0.065-0.484-0.205c-0.137-0.137-0.207-0.298-0.207-0.486V47.521c0-0.188,0.07-0.352,0.207-0.485
		c0.135-0.14,0.297-0.208,0.484-0.208h2.968c0.479,0,0.847,0.23,1.102,0.693l4.146,7.086l4.145-7.086
		c0.257-0.463,0.622-0.693,1.101-0.693h2.968c0.188,0,0.352,0.068,0.487,0.208c0.136,0.134,0.205,0.298,0.205,0.485v16.529
		c0,0.188-0.069,0.35-0.205,0.486c-0.136,0.14-0.3,0.205-0.487,0.205h-3.353c-0.187,0-0.349-0.065-0.485-0.205
		c-0.137-0.137-0.204-0.298-0.204-0.486v-8.469l-2.405,4.22c-0.12,0.188-0.253,0.34-0.396,0.462c-0.146,0.118-0.329,0.18-0.551,0.18
		h-1.638c-0.222,0-0.406-0.062-0.55-0.18c-0.146-0.122-0.277-0.273-0.396-0.462L102.119,55.582z"/>
	<path fill="#222026" d="M122.437,49.82c-0.137,0.139-0.3,0.211-0.487,0.211h-3.225c-0.187,0-0.349-0.072-0.485-0.211
		c-0.137-0.133-0.204-0.299-0.204-0.485v-2.583c0-0.188,0.067-0.351,0.204-0.485c0.137-0.136,0.299-0.205,0.485-0.205h3.225
		c0.188,0,0.351,0.069,0.487,0.205c0.135,0.135,0.204,0.298,0.204,0.485v2.583C122.641,49.521,122.571,49.688,122.437,49.82z
		 M122.437,64.537c-0.137,0.14-0.3,0.205-0.487,0.205h-3.225c-0.187,0-0.349-0.065-0.485-0.205
		c-0.137-0.137-0.204-0.298-0.204-0.486V52.124c0-0.187,0.067-0.348,0.204-0.483c0.137-0.139,0.299-0.205,0.485-0.205h3.225
		c0.188,0,0.351,0.066,0.487,0.205c0.135,0.136,0.204,0.297,0.204,0.483v11.927C122.641,64.239,122.571,64.4,122.437,64.537z"/>
	<path fill="#222026" d="M130.332,60.469c0.417,0.373,0.958,0.56,1.623,0.56c0.528,0,0.947-0.074,1.255-0.228
		c0.307-0.153,0.562-0.384,0.767-0.689c0.103-0.174,0.209-0.3,0.319-0.387c0.111-0.086,0.253-0.125,0.423-0.125h3.354
		c0.187,0,0.348,0.062,0.485,0.188c0.137,0.129,0.204,0.279,0.204,0.451c0,0.492-0.214,1.111-0.64,1.856
		c-0.427,0.738-1.147,1.407-2.162,2.003c-1.014,0.604-2.351,0.901-4.005,0.901c-1.279,0-2.435-0.244-3.467-0.729
		c-1.031-0.488-1.859-1.176-2.482-2.063c-0.623-0.886-0.95-1.92-0.985-3.094l-0.027-1.025l0.027-1.023
		c0.035-1.179,0.362-2.208,0.985-3.097c0.623-0.885,1.451-1.57,2.482-2.062c1.032-0.484,2.188-0.728,3.467-0.728
		c1.638,0,2.959,0.288,3.967,0.87c1.007,0.578,1.721,1.236,2.15,1.968c0.426,0.735,0.656,1.359,0.689,1.869
		c0.017,0.188-0.048,0.35-0.19,0.488c-0.146,0.135-0.312,0.204-0.499,0.204h-3.354c-0.17,0-0.312-0.044-0.423-0.129
		c-0.11-0.085-0.217-0.214-0.319-0.384c-0.204-0.308-0.46-0.538-0.767-0.689c-0.308-0.156-0.727-0.232-1.255-0.232
		c-0.665,0-1.206,0.187-1.623,0.566c-0.419,0.373-0.654,0.868-0.706,1.482c-0.016,0.169-0.024,0.47-0.024,0.896
		c0,0.423,0.009,0.728,0.024,0.895C129.678,59.6,129.913,60.094,130.332,60.469z"/>
	<path fill="#222026" d="M154.379,64.537c-0.136,0.14-0.299,0.205-0.485,0.205h-3.225c-0.188,0-0.352-0.065-0.487-0.205
		c-0.136-0.137-0.204-0.298-0.204-0.486v-6.474c0-0.751-0.185-1.345-0.549-1.775c-0.368-0.438-0.926-0.657-1.677-0.657
		c-0.734,0-1.283,0.215-1.65,0.642c-0.368,0.427-0.549,1.022-0.549,1.791v6.474c0,0.188-0.07,0.35-0.207,0.486
		c-0.137,0.14-0.299,0.205-0.485,0.205h-3.225c-0.188,0-0.35-0.065-0.485-0.205c-0.138-0.137-0.207-0.298-0.207-0.486V47.263
		c0-0.185,0.069-0.348,0.207-0.484c0.136-0.138,0.298-0.204,0.485-0.204h3.225c0.187,0,0.349,0.066,0.485,0.204
		c0.137,0.137,0.207,0.3,0.207,0.484v5.454c0.322-0.411,0.799-0.771,1.432-1.076c0.631-0.308,1.313-0.461,2.047-0.461
		c1.722,0,3.079,0.486,4.068,1.458c0.989,0.97,1.482,2.432,1.482,4.376v7.037C154.582,64.239,154.516,64.4,154.379,64.537z"/>
	<path fill="#222026" d="M164.993,56.042c0-0.94-0.494-1.408-1.483-1.408c-0.563,0-1.023,0.153-1.382,0.456
		c-0.137,0.141-0.273,0.224-0.41,0.259c-0.137,0.036-0.307,0.055-0.511,0.055h-3.251c-0.17,0-0.311-0.055-0.422-0.155
		c-0.11-0.104-0.159-0.238-0.142-0.408c0.053-0.53,0.347-1.08,0.884-1.652c0.538-0.574,1.268-1.05,2.187-1.434
		c0.923-0.384,1.938-0.574,3.047-0.574c2.029,0,3.553,0.461,4.567,1.381c1.017,0.922,1.522,2.167,1.522,3.733v7.757
		c0,0.188-0.068,0.35-0.205,0.486c-0.135,0.14-0.298,0.205-0.485,0.205h-3.225c-0.188,0-0.35-0.065-0.486-0.205
		c-0.137-0.137-0.205-0.298-0.205-0.486v-0.717c-0.443,0.546-0.973,0.962-1.586,1.241c-0.614,0.282-1.391,0.425-2.328,0.425
		c-1.433,0-2.555-0.378-3.366-1.129c-0.811-0.747-1.216-1.723-1.216-2.917c0-1.143,0.443-2.081,1.331-2.815
		c0.887-0.735,2.278-1.26,4.17-1.587L164.993,56.042z M162.64,59.444c-0.479,0.083-0.854,0.235-1.126,0.448
		c-0.274,0.21-0.409,0.471-0.409,0.779c0,0.579,0.409,0.872,1.228,0.872c0.751,0,1.383-0.241,1.894-0.72
		c0.513-0.475,0.768-1.056,0.768-1.739L162.64,59.444z"/>
	<path fill="#222026" d="M177.079,61.083c0.461,0.307,0.998,0.461,1.613,0.461c0.477,0,0.87-0.055,1.177-0.154
		c0.307-0.103,0.571-0.249,0.793-0.436c0.188-0.153,0.323-0.251,0.41-0.297c0.084-0.04,0.23-0.061,0.435-0.061h3.326
		c0.17,0,0.307,0.051,0.41,0.152c0.102,0.104,0.153,0.241,0.153,0.409c0,0.344-0.257,0.824-0.768,1.447
		c-0.513,0.622-1.271,1.178-2.278,1.666c-1.006,0.484-2.226,0.729-3.658,0.729c-2.201,0-3.902-0.611-5.105-1.832
		c-1.202-1.221-1.806-2.915-1.806-5.079c0-1.351,0.271-2.544,0.808-3.581c0.537-1.044,1.325-1.858,2.367-2.448
		c1.039-0.586,2.285-0.88,3.736-0.88c1.586,0,2.895,0.337,3.929,1.009c1.03,0.677,1.785,1.545,2.263,2.614
		c0.478,1.063,0.717,2.177,0.717,3.336v0.718c0,0.188-0.067,0.35-0.204,0.484c-0.138,0.139-0.298,0.204-0.487,0.204h-8.521
		C176.389,60.264,176.62,60.778,177.079,61.083z M180.994,56.71c-0.068-0.585-0.303-1.073-0.703-1.476
		c-0.401-0.401-0.934-0.601-1.599-0.601c-0.666,0-1.2,0.199-1.6,0.601c-0.401,0.402-0.636,0.891-0.704,1.476H180.994z"/>
	<path fill="#222026" d="M192.277,64.537c-0.137,0.14-0.298,0.205-0.486,0.205h-3.225c-0.188,0-0.35-0.065-0.485-0.205
		c-0.139-0.137-0.206-0.298-0.206-0.486V47.263c0-0.185,0.067-0.348,0.206-0.484c0.136-0.138,0.298-0.204,0.485-0.204h3.225
		c0.188,0,0.35,0.066,0.486,0.204c0.137,0.137,0.205,0.3,0.205,0.484v16.788C192.482,64.239,192.414,64.4,192.277,64.537z"/>
	<path fill="#222026" d="M214.822,47.036c0.136,0.134,0.201,0.298,0.201,0.485v2.71c0,0.19-0.065,0.349-0.201,0.486
		c-0.138,0.137-0.3,0.204-0.486,0.204h-4.503v13.129c0,0.188-0.07,0.35-0.206,0.486c-0.136,0.14-0.299,0.205-0.486,0.205h-3.353
		c-0.188,0-0.35-0.065-0.485-0.205c-0.137-0.137-0.204-0.298-0.204-0.486V50.922h-4.506c-0.187,0-0.349-0.067-0.485-0.204
		c-0.137-0.138-0.204-0.296-0.204-0.486v-2.71c0-0.188,0.067-0.352,0.204-0.485c0.137-0.14,0.299-0.208,0.485-0.208h13.743
		C214.522,46.828,214.685,46.896,214.822,47.036z"/>
	<path fill="#222026" d="M217.419,64.537c-0.136,0.14-0.298,0.205-0.484,0.205h-3.354c-0.188,0-0.351-0.065-0.486-0.205
		c-0.137-0.137-0.205-0.298-0.205-0.486v-3.355c0-0.187,0.068-0.346,0.205-0.484c0.136-0.133,0.299-0.205,0.486-0.205h3.354
		c0.187,0,0.349,0.072,0.484,0.205c0.138,0.139,0.205,0.298,0.205,0.484v3.355C217.624,64.239,217.557,64.4,217.419,64.537z"/>
	<path fill="#222026" d="M239.169,60.853c0.137,0.138,0.205,0.298,0.205,0.485v2.713c0,0.188-0.068,0.35-0.205,0.486
		c-0.138,0.14-0.301,0.205-0.486,0.205h-11.848c-0.188,0-0.351-0.065-0.488-0.205c-0.134-0.137-0.203-0.298-0.203-0.486V47.521
		c0-0.188,0.069-0.352,0.203-0.485c0.138-0.14,0.3-0.208,0.488-0.208h3.352c0.188,0,0.349,0.068,0.486,0.208
		c0.138,0.134,0.203,0.298,0.203,0.485v13.126h7.807C238.868,60.647,239.031,60.713,239.169,60.853z"/>
	<path fill="#222026" d="M249.325,56.042c0-0.94-0.495-1.408-1.484-1.408c-0.562,0-1.023,0.153-1.383,0.456
		c-0.136,0.141-0.271,0.224-0.409,0.259c-0.138,0.036-0.306,0.055-0.511,0.055h-3.25c-0.172,0-0.313-0.055-0.424-0.155
		c-0.112-0.104-0.159-0.238-0.14-0.408c0.051-0.53,0.345-1.08,0.883-1.652c0.537-0.574,1.267-1.05,2.187-1.434
		c0.922-0.384,1.938-0.574,3.047-0.574c2.029,0,3.553,0.461,4.567,1.381c1.014,0.922,1.522,2.167,1.522,3.733v7.757
		c0,0.188-0.069,0.35-0.205,0.486c-0.138,0.14-0.298,0.205-0.486,0.205h-3.225c-0.186,0-0.348-0.065-0.485-0.205
		c-0.136-0.137-0.204-0.298-0.204-0.486v-0.717c-0.445,0.546-0.974,0.962-1.586,1.241C247.124,64.857,246.348,65,245.41,65
		c-1.434,0-2.557-0.378-3.366-1.129c-0.812-0.747-1.216-1.723-1.216-2.917c0-1.143,0.443-2.081,1.33-2.815
		c0.888-0.735,2.279-1.26,4.172-1.587L249.325,56.042z M246.971,59.444c-0.479,0.083-0.854,0.235-1.125,0.448
		c-0.275,0.21-0.41,0.471-0.41,0.779c0,0.579,0.41,0.872,1.228,0.872c0.751,0,1.383-0.241,1.894-0.72
		c0.514-0.475,0.769-1.056,0.769-1.739L246.971,59.444z"/>
	<path fill="#222026" d="M267.868,52.05l1.896,5.808l1.893-5.808c0.154-0.409,0.445-0.614,0.871-0.614h3.172
		c0.173,0,0.316,0.062,0.435,0.178c0.119,0.12,0.178,0.268,0.178,0.437l-0.025,0.205l-4.064,11.844
		c-0.138,0.431-0.424,0.644-0.849,0.644h-2.914c-0.396,0-0.676-0.213-0.847-0.644l-1.816-5.37l-1.816,5.37
		c-0.172,0.431-0.451,0.644-0.845,0.644h-2.916c-0.428,0-0.709-0.213-0.845-0.644l-4.068-11.844l-0.027-0.205
		c0-0.169,0.062-0.316,0.183-0.437c0.118-0.115,0.263-0.178,0.432-0.178h3.174c0.428,0,0.717,0.205,0.871,0.614l1.893,5.808
		l1.896-5.808c0.153-0.409,0.443-0.614,0.87-0.614h2.405C267.427,51.436,267.717,51.641,267.868,52.05z"/>
	<path fill="#222026" d="M287.94,51.641c0.14,0.136,0.205,0.297,0.205,0.483v2.588c0,0.186-0.065,0.351-0.205,0.485
		c-0.136,0.134-0.298,0.206-0.484,0.206h-2.327c-0.77,0-1.354,0.2-1.757,0.6c-0.398,0.397-0.599,0.986-0.599,1.752v6.296
		c0,0.188-0.067,0.35-0.205,0.486c-0.138,0.14-0.298,0.205-0.488,0.205h-3.222c-0.188,0-0.349-0.065-0.486-0.205
		c-0.138-0.137-0.205-0.298-0.205-0.486V52.124c0-0.187,0.067-0.348,0.205-0.483c0.138-0.139,0.298-0.205,0.486-0.205h2.971
		c0.186,0,0.348,0.066,0.483,0.205c0.138,0.136,0.204,0.297,0.204,0.483v0.593c0.887-0.854,2.021-1.281,3.404-1.281h1.535
		C287.643,51.436,287.805,51.502,287.94,51.641z"/>
	<path fill="#222026" d="M294.635,61.083c0.461,0.307,1,0.461,1.609,0.461c0.479,0,0.878-0.055,1.182-0.154
		c0.306-0.103,0.571-0.249,0.794-0.436c0.186-0.153,0.319-0.251,0.408-0.297c0.086-0.04,0.232-0.061,0.436-0.061h3.327
		c0.171,0,0.307,0.051,0.409,0.152c0.101,0.104,0.15,0.241,0.15,0.409c0,0.344-0.253,0.824-0.763,1.447
		c-0.515,0.622-1.272,1.178-2.281,1.666c-1.005,0.484-2.225,0.729-3.662,0.729c-2.194,0-3.895-0.611-5.103-1.832
		c-1.203-1.221-1.803-2.915-1.803-5.079c0-1.351,0.267-2.544,0.806-3.581c0.54-1.044,1.326-1.858,2.366-2.448
		c1.042-0.586,2.287-0.88,3.733-0.88c1.588,0,2.899,0.337,3.932,1.009c1.034,0.677,1.789,1.545,2.264,2.614
		c0.479,1.063,0.717,2.177,0.717,3.336v0.718c0,0.188-0.07,0.35-0.206,0.484c-0.133,0.139-0.296,0.204-0.483,0.204h-8.523
		C293.943,60.264,294.174,60.778,294.635,61.083z M298.551,56.71c-0.069-0.585-0.3-1.073-0.703-1.476
		c-0.4-0.401-0.936-0.601-1.604-0.601c-0.664,0-1.194,0.199-1.596,0.601c-0.402,0.402-0.635,0.891-0.705,1.476H298.551z"/>
	<path fill="#222026" d="M318.867,64.537c-0.138,0.14-0.3,0.205-0.488,0.205h-3.225c-0.186,0-0.349-0.065-0.483-0.205
		c-0.138-0.137-0.204-0.298-0.204-0.486v-6.474c0-0.751-0.186-1.345-0.552-1.775c-0.366-0.438-0.926-0.657-1.677-0.657
		c-0.732,0-1.284,0.215-1.65,0.642c-0.365,0.427-0.552,1.022-0.552,1.791v6.474c0,0.188-0.067,0.35-0.203,0.486
		c-0.138,0.14-0.298,0.205-0.486,0.205h-3.226c-0.188,0-0.347-0.065-0.484-0.205c-0.136-0.137-0.205-0.298-0.205-0.486V52.124
		c0-0.187,0.069-0.348,0.205-0.483c0.138-0.139,0.296-0.205,0.484-0.205h3.098c0.187,0,0.351,0.066,0.486,0.205
		c0.138,0.136,0.203,0.297,0.203,0.483v0.593c0.804-1.027,2.007-1.537,3.608-1.537c1.726,0,3.081,0.486,4.068,1.458
		c0.991,0.97,1.487,2.432,1.487,4.376v7.037C319.072,64.239,319.003,64.4,318.867,64.537z"/>
	<path fill="#222026" d="M326.617,60.469c0.414,0.373,0.957,0.56,1.621,0.56c0.53,0,0.95-0.074,1.255-0.228
		c0.308-0.153,0.563-0.384,0.769-0.689c0.101-0.174,0.207-0.3,0.319-0.387c0.112-0.086,0.252-0.125,0.424-0.125h3.351
		c0.186,0,0.351,0.062,0.484,0.188c0.14,0.129,0.205,0.279,0.205,0.451c0,0.492-0.211,1.111-0.637,1.856
		c-0.429,0.738-1.148,1.407-2.163,2.003c-1.018,0.604-2.352,0.901-4.007,0.901c-1.278,0-2.433-0.244-3.465-0.729
		c-1.036-0.488-1.861-1.176-2.482-2.063c-0.624-0.886-0.951-1.92-0.987-3.094l-0.025-1.025l0.025-1.023
		c0.036-1.179,0.363-2.208,0.987-3.097c0.621-0.885,1.446-1.57,2.482-2.062c1.032-0.484,2.187-0.728,3.465-0.728
		c1.638,0,2.959,0.288,3.97,0.87c1.005,0.578,1.722,1.236,2.147,1.968c0.428,0.735,0.658,1.359,0.689,1.869
		c0.018,0.188-0.045,0.35-0.191,0.488c-0.144,0.135-0.312,0.204-0.498,0.204h-3.351c-0.172,0-0.312-0.044-0.424-0.129
		s-0.219-0.214-0.319-0.384c-0.205-0.308-0.461-0.538-0.769-0.689c-0.305-0.156-0.725-0.232-1.255-0.232
		c-0.664,0-1.207,0.187-1.621,0.566c-0.422,0.373-0.654,0.868-0.703,1.482c-0.018,0.169-0.029,0.47-0.029,0.896
		c0,0.423,0.012,0.728,0.029,0.895C325.963,59.6,326.195,60.094,326.617,60.469z"/>
	<path fill="#222026" d="M341.91,61.083c0.457,0.307,0.999,0.461,1.609,0.461c0.475,0,0.871-0.055,1.177-0.154
		c0.309-0.103,0.571-0.249,0.792-0.436c0.188-0.153,0.324-0.251,0.411-0.297c0.087-0.04,0.229-0.061,0.436-0.061h3.327
		c0.17,0,0.306,0.051,0.406,0.152c0.103,0.104,0.153,0.241,0.153,0.409c0,0.344-0.254,0.824-0.763,1.447
		c-0.516,0.622-1.274,1.178-2.277,1.666c-1.01,0.484-2.229,0.729-3.662,0.729c-2.2,0-3.9-0.611-5.104-1.832
		c-1.204-1.221-1.805-2.915-1.805-5.079c0-1.351,0.268-2.544,0.806-3.581c0.539-1.044,1.325-1.858,2.368-2.448
		c1.038-0.586,2.283-0.88,3.734-0.88c1.584,0,2.895,0.337,3.927,1.009c1.032,0.677,1.788,1.545,2.268,2.614
		c0.475,1.063,0.713,2.177,0.713,3.336v0.718c0,0.188-0.065,0.35-0.205,0.484c-0.134,0.139-0.296,0.204-0.484,0.204h-8.521
		C341.217,60.264,341.447,60.778,341.91,61.083z M345.824,56.71c-0.068-0.585-0.303-1.073-0.705-1.476
		c-0.397-0.401-0.934-0.601-1.6-0.601c-0.662,0-1.199,0.199-1.6,0.601c-0.403,0.402-0.636,0.891-0.703,1.476H345.824z"/>
</g>
</svg>
